<svg width="25" height="24" viewBox="0 0 25 24" fill="none" xmlns="http://www.w3.org/2000/svg">
<path d="M12.959 1.6601C12.8259 1.55635 12.662 1.5 12.4932 1.5C12.3245 1.5 12.1606 1.55635 12.0275 1.6601L1.25 10.0639L2.18225 11.2429L3.5 10.2154V19.4996C3.50079 19.8972 3.65908 20.2783 3.94022 20.5594C4.22135 20.8405 4.60242 20.9988 5 20.9996H20C20.3976 20.9988 20.7787 20.8405 21.0598 20.5594C21.3409 20.2783 21.4992 19.8972 21.5 19.4996V10.2221L22.8177 11.2496L23.75 10.0706L12.959 1.6601ZM14 19.4996H11V13.4996H14V19.4996ZM15.5 19.4996V13.4996C15.4996 13.1019 15.3414 12.7206 15.0602 12.4394C14.779 12.1582 14.3977 12 14 11.9996H11C10.6023 12 10.221 12.1582 9.93978 12.4394C9.65856 12.7206 9.5004 13.1019 9.5 13.4996V19.4996H5V9.0461L12.5 3.2036L20 9.0536V19.4996H15.5Z" fill="#1A1003" fill-opacity="0.5"/>
</svg>
