<svg width="30" height="24" viewBox="0 0 30 24" fill="none" xmlns="http://www.w3.org/2000/svg">
<g clip-path="url(#clip0_43_118)">
<path d="M9.75008 16.5C9.63804 16.5 9.52601 16.5164 9.41914 16.5511C8.81164 16.7484 8.17273 16.875 7.50008 16.875C6.82742 16.875 6.18851 16.7484 5.58054 16.5511C5.47367 16.5164 5.36211 16.5 5.25008 16.5C2.34101 16.5 -0.015393 18.8662 7.57256e-05 21.7791C0.00663823 23.01 1.01867 24 2.25008 24H12.7501C13.9815 24 14.9935 23.01 15.0001 21.7791C15.0155 18.8662 12.6591 16.5 9.75008 16.5ZM7.50008 15C9.98539 15 12.0001 12.9853 12.0001 10.5C12.0001 8.01469 9.98539 6 7.50008 6C5.01476 6 3.00008 8.01469 3.00008 10.5C3.00008 12.9853 5.01476 15 7.50008 15ZM27.7501 0H9.75008C8.50929 0 7.50008 1.04297 7.50008 2.32453V4.5C8.59789 4.5 9.61414 4.81781 10.5001 5.33438V3H27.0001V16.5H24.0001V13.5H18.0001V16.5H14.4263C15.3216 17.2823 15.9788 18.3155 16.2868 19.5H27.7501C28.9909 19.5 30.0001 18.457 30.0001 17.1755V2.32453C30.0001 1.04297 28.9909 0 27.7501 0Z" fill="#E80505"/>
</g>
<defs>
<clipPath id="clip0_43_118">
<rect width="30" height="24" fill="white"/>
</clipPath>
</defs>
</svg>
