<svg width="17" height="15" viewBox="0 0 17 15" fill="none" xmlns="http://www.w3.org/2000/svg">
<path d="M16.9874 2.60531C16.3564 2.88446 15.6873 3.06783 15.0021 3.14938C15.724 2.71705 16.2642 2.03705 16.5219 1.23604C15.8439 1.63954 15.1005 1.92233 14.3266 2.0753C13.8062 1.51848 13.1164 1.14919 12.3644 1.02485C11.6125 0.900507 10.8405 1.02808 10.1686 1.38773C9.49661 1.74738 8.96229 2.31896 8.64869 3.01361C8.33508 3.70825 8.25976 4.48705 8.43444 5.22892C7.05932 5.16012 5.71406 4.80287 4.48599 4.18036C3.25792 3.55785 2.17451 2.684 1.30612 1.61557C0.998769 2.14347 0.837256 2.74358 0.83812 3.35444C0.83812 4.55338 1.44917 5.61258 2.37607 6.23272C1.82705 6.21541 1.29012 6.06714 0.810007 5.80028V5.84245C0.809982 6.64108 1.0862 7.41515 1.59182 8.03334C2.09744 8.65154 2.80133 9.07582 3.5841 9.23421C3.07447 9.37247 2.54003 9.39283 2.02135 9.29374C2.24206 9.98118 2.67226 10.5824 3.25171 11.0131C3.83115 11.4438 4.53082 11.6825 5.2527 11.6958C4.53528 12.2592 3.71383 12.6757 2.83531 12.9215C1.9568 13.1672 1.03846 13.2373 0.132812 13.1279C1.71353 14.1444 3.5536 14.6841 5.43295 14.6824C11.7948 14.6824 15.2725 9.41281 15.2725 4.84278C15.2725 4.69395 15.2692 4.54346 15.2626 4.39545C15.9393 3.90625 16.5234 3.29951 16.9874 2.60531Z" fill="#1DA1F2"/>
</svg>
