<svg width="17" height="16" viewBox="0 0 17 16" fill="none" xmlns="http://www.w3.org/2000/svg">
<path d="M3.88945 1.80688C3.88923 2.24547 3.71479 2.66601 3.40451 2.97599C3.09422 3.28596 2.67351 3.45998 2.23491 3.45976C1.79632 3.45954 1.37578 3.2851 1.06581 2.97482C0.755831 2.66453 0.581812 2.24382 0.582031 1.80523C0.582251 1.36664 0.756691 0.946095 1.06698 0.63612C1.37726 0.326144 1.79798 0.152125 2.23657 0.152344C2.67516 0.152563 3.0957 0.327003 3.40568 0.637289C3.71565 0.947575 3.88967 1.36829 3.88945 1.80688ZM3.93906 4.68434H0.631643V15.0366H3.93906V4.68434ZM9.16479 4.68434H5.8739V15.0366H9.13171V9.60412C9.13171 6.57783 13.0758 6.2967 13.0758 9.60412V15.0366H16.3419V8.4796C16.3419 3.3779 10.5043 3.56808 9.13171 6.07345L9.16479 4.68434Z" fill="#0077B5"/>
</svg>
