<svg width="20" height="20" viewBox="0 0 20 20" fill="none" xmlns="http://www.w3.org/2000/svg">
<path d="M19.341 11.8934C19.2448 11.797 19.1242 11.7286 18.9921 11.6955C18.8599 11.6625 18.7213 11.6661 18.591 11.7059C17.161 12.1382 15.6404 12.1745 14.1913 11.8108C12.7422 11.4471 11.419 10.697 10.3626 9.6406C9.30614 8.58418 8.55611 7.26093 8.19241 5.81186C7.82871 4.3628 7.86496 2.84221 8.2973 1.41212C8.33742 1.28181 8.34127 1.14302 8.30841 1.01069C8.27556 0.878361 8.20725 0.757489 8.11084 0.661076C8.01443 0.564663 7.89356 0.496357 7.76122 0.463504C7.62889 0.43065 7.49011 0.434492 7.3598 0.474617C5.38264 1.08028 3.64687 2.29411 2.39949 3.94337C1.30862 5.39167 0.643225 7.11547 0.478047 8.92109C0.312869 10.7267 0.654456 12.5426 1.46443 14.1648C2.27441 15.787 3.52068 17.1512 5.06324 18.1041C6.60579 19.0571 8.38351 19.561 10.1967 19.5593C12.312 19.5658 14.371 18.8782 16.0579 17.6018C17.7072 16.3544 18.921 14.6187 19.5267 12.6415C19.5663 12.5117 19.57 12.3735 19.5373 12.2418C19.5046 12.11 19.4368 11.9896 19.341 11.8934ZM15.156 16.4037C13.5675 17.6002 11.6002 18.1826 9.61631 18.0437C7.63243 17.9047 5.76549 17.0539 4.35918 15.6477C2.95287 14.2415 2.10185 12.3746 1.96277 10.3907C1.8237 8.40686 2.40593 6.43952 3.6023 4.85087C4.38174 3.82155 5.38942 2.98716 6.54605 2.41337C6.48016 2.87577 6.44695 3.34223 6.44667 3.8093C6.4494 6.39433 7.47751 8.87269 9.3054 10.7006C11.1333 12.5285 13.6117 13.5566 16.1967 13.5593C16.6647 13.5592 17.1321 13.526 17.5954 13.4599C17.0211 14.6168 16.186 15.6245 15.156 16.4037Z" fill="#0B0909"/>
</svg>
