<svg width="17" height="17" viewBox="0 0 17 17" fill="none" xmlns="http://www.w3.org/2000/svg">
<path d="M8.27246 0.326172C3.70408 0.326172 0.00390761 4.02635 0.00390761 8.59472C0.00291203 10.3304 0.548473 12.0224 1.5632 13.4305C2.57793 14.8387 4.01029 15.8916 5.65711 16.4399C6.07054 16.5119 6.22599 16.2638 6.22599 16.0463C6.22599 15.8504 6.21524 15.1996 6.21524 14.5067C4.13818 14.8896 3.60073 14.0007 3.43536 13.5352C3.34192 13.297 2.93924 12.5636 2.58783 12.3668C2.29843 12.2122 1.885 11.8294 2.57708 11.8195C3.22864 11.8087 3.69333 12.4189 3.84878 12.667C4.59295 13.9172 5.78114 13.5658 6.25658 13.3491C6.32935 12.8117 6.54598 12.4503 6.78412 12.2436C4.94437 12.0369 3.02193 11.3233 3.02193 8.16062C3.02193 7.261 3.34192 6.51766 3.86945 5.93804C3.78677 5.73132 3.49737 4.8838 3.95214 3.74687C3.95214 3.74687 4.64422 3.53023 6.22599 4.59522C6.8991 4.4084 7.59457 4.31438 8.29313 4.31575C8.99596 4.31575 9.69878 4.40835 10.3603 4.5944C11.942 3.51949 12.6341 3.7477 12.6341 3.7477C13.0889 4.88462 12.7995 5.73215 12.7168 5.93886C13.2435 6.51766 13.5643 7.25108 13.5643 8.16062C13.5643 11.3341 11.632 12.0369 9.79139 12.2436C10.0915 12.5016 10.3503 12.9977 10.3503 13.7733C10.3503 14.8788 10.3396 15.7677 10.3396 16.0472C10.3396 16.2638 10.495 16.5218 10.9085 16.4391C12.5496 15.8848 13.9757 14.8298 14.9859 13.4227C15.9962 12.0155 16.5398 10.327 16.5402 8.59472C16.5402 4.02635 12.84 0.326172 8.27163 0.326172H8.27246Z" fill="#0B0909"/>
</svg>
